<?xml version="1.0" encoding="utf-8"?>
<!-- Generator: Adobe Illustrator 19.0.0, SVG Export Plug-In . SVG Version: 6.00 Build 0)  -->
<svg version="1.1" id="layer" xmlns="http://www.w3.org/2000/svg" xmlns:xlink="http://www.w3.org/1999/xlink" x="0px" y="0px"
	 viewBox="-153 -46 652 652" style="enable-background:new -153 -46 652 652;" xml:space="preserve">
<style type="text/css">
	.st0{fill:#F68A20;}
	.st1{fill:#F05B24;}
	.st2{fill:#0685C1;}
</style>
<path class="st0" d="M-34.8,299.2c-10.8,0-20.7-5-26.6-13.5c-1.8-2.6-1.2-6.2,1.4-8c2.6-1.8,6.2-1.2,8,1.4
	c3.8,5.4,10.2,8.6,17.2,8.6c7,0,13.4-3.2,17.2-8.6c1.8-2.6,5.4-3.2,8-1.4c2.6,1.8,3.2,5.4,1.4,8C-14.1,294.2-24.1,299.2-34.8,299.2"
	/>
<path class="st1" d="M127.2,297.5c4.2,0,6.6,1.9,6.6,5.3c0,3.4-2.4,5.3-6.6,5.3H84.1c-6,0-6.4-3.4-6.4-4.5c0-1.8,0.7-3.5,2.6-6
	l33.8-46.6H85.6c-4.2,0-6.6-1.9-6.6-5.3c0-3.4,2.4-5.4,6.6-5.4h40.2c6,0,6.4,3.4,6.4,4.5c0,1.8-0.7,3.5-2.6,6l-34.4,46.6H127.2
	 M147,239.7c-4,0-6.6,2.5-6.6,6.5v56.3c0,3.9,2.6,6.5,6.6,6.5c4,0,6.6-2.5,6.6-6.5v-56.3C153.6,242.3,151,239.7,147,239.7
	 M238.4,239.7c-9.4,0-16.2,3.3-22.1,10.8c-4.9-7.2-11.5-10.8-19.9-10.8c-10.5,0-15.2,4.4-17.9,7.4v-1c0-3.9-2.6-6.5-6.6-6.5
	c-4,0-6.6,2.5-6.6,6.5v56.3c0,3.9,2.6,6.5,6.6,6.5c4,0,6.6-2.5,6.6-6.5v-37.3c0-9.3,5.5-14.8,14.8-14.8c9.3,0,14.9,5.5,14.9,14.8
	v37.3c0,3.9,2.6,6.5,6.6,6.5s6.6-2.5,6.6-6.5v-37.3c0-9.3,5.5-14.8,14.8-14.8c9.3,0,14.9,5.5,14.9,14.8v37.3c0,3.9,2.6,6.5,6.6,6.5
	c4,0,6.6-2.5,6.6-6.5v-36.9C264.2,247.7,251.2,239.7,238.4,239.7 M308.7,239.7c20.6,0,31.4,17.4,31.4,34.6
	c0,17.2-10.8,34.6-31.4,34.6c-8.9,0-15.3-2.7-19-8.1v1.6c0,3.9-2.6,6.5-6.6,6.5c-4,0-6.6-2.5-6.6-6.5v-78.8c0-3.9,2.6-6.5,6.6-6.5
	c4,0,6.6,2.5,6.6,6.5V248C293.3,243.8,299.9,239.7,308.7,239.7 M307.7,250.4c-14.2,0-19.2,12.9-19.2,23.9c0,11,5,23.9,19.2,23.9
	c14.2,0,19.2-12.9,19.2-23.9C326.9,263.3,321.9,250.4,307.7,250.4 M385.2,245.9c0-3.7-3-6.2-7.2-6.2c-6.3,0-12.6,5.1-16,10.4v-3.9
	c0-3.9-2.6-6.5-6.6-6.5c-4,0-6.6,2.5-6.6,6.5v56.3c0,3.9,2.6,6.5,6.6,6.5c4,0,6.6-2.5,6.6-6.5v-31.7c0-14.7,11.7-17.7,15.3-18.3
	C382.5,251.6,385.2,249.4,385.2,245.9 M440.9,239.7c2.5,0,6.2,1.6,6.2,6V303c0,4.4-3.7,6-6.2,6c-3,0-6.2-1.9-6.2-6v-3.3
	c-5,6.1-11.7,9.3-19.4,9.3c-21.2,0-32.4-17.4-32.4-34.6c0-17.2,11.1-34.6,32.4-34.6c7.5,0,13.4,2.5,19.4,8.3v-2.4
	C434.8,241.6,438,239.7,440.9,239.7 M415.4,298.3c14.2,0,19.2-12.9,19.2-23.9c0-11-5-23.9-19.2-23.9c-14.2,0-19.2,12.9-19.2,23.9
	C396.2,285.4,401.2,298.3,415.4,298.3 M460.6,238.7c-4.6,0-8.4,3.7-8.4,8.4c0,4.8,3.8,8.5,8.4,8.5c4.6,0,8.3-3.7,8.3-8.5
	C468.9,242.4,465.2,238.7,460.6,238.7L460.6,238.7z M460.6,240c3.7,0,6.7,3.2,6.7,7.2c0,4-3,7.2-6.7,7.1c-3.7,0-6.8-3.1-6.8-7.2
	C453.8,243.2,456.9,240,460.6,240L460.6,240z M459,248h1c1.2,0,1.8,0.4,2,1.6c0.2,1.2,0.4,2.1,0.6,2.4h1.6c-0.2-0.3-0.4-0.9-0.6-2.3
	c-0.2-1.4-0.8-2.1-1.6-2.3v-0.1c1-0.3,1.8-1,1.8-2.3c0-0.9-0.3-1.5-0.9-2c-0.6-0.4-1.5-0.7-2.9-0.7c-1.1,0-1.9,0.1-2.7,0.2v9.4h1.5
	V248z M459,243.6c0.3,0,0.6-0.1,1.1-0.1c1.7,0,2.3,0.8,2.3,1.7c0,1.2-1,1.6-2.3,1.6H459V243.6z M153.2,224.7c0-4.1-3.3-7.5-7.5-7.5
	c-4.1,0-7.5,3.3-7.5,7.5c0,4.1,3.3,7.5,7.5,7.5C149.8,232.2,153.2,228.8,153.2,224.7 M-55.4,329.8c-41.7,0-75.7-25.7-75.7-57.3
	c0-11.3,4.2-22.1,12.3-31.4l-7.8-23.9c-0.7-2.2,0-4.6,1.7-6.1c1.7-1.5,4.2-1.9,6.3-0.9l25.7,12.4c11.4-4.9,24.3-7.5,37.5-7.5
	c41.7,0,75.7,25.7,75.7,57.3C20.3,304.1-13.7,329.8-55.4,329.8 M-111.4,226.5l4.6,14.2c0.7,2,0.2,4.3-1.3,5.8
	c-7.5,7.7-11.4,16.7-11.4,25.9c0,25.2,28.8,45.8,64.2,45.8c35.4,0,64.2-20.5,64.2-45.8c0-25.2-28.8-45.8-64.2-45.8
	c-12.5,0-24.7,2.6-35.1,7.5c-1.6,0.7-3.4,0.7-5,0L-111.4,226.5z"/>
<path class="st2" d="M-9.7,258.1c0,4.9-3.9,8.8-8.8,8.8c-4.9,0-8.8-3.9-8.8-8.8c0-4.9,3.9-8.8,8.8-8.8
	C-13.6,249.3-9.7,253.3-9.7,258.1 M-60,258.1c0,4.9,3.9,8.8,8.8,8.8c4.9,0,8.8-3.9,8.8-8.8c0-4.9-3.9-8.8-8.8-8.8
	C-56,249.3-60,253.3-60,258.1 M50.1,335.3c1.4,0,2.7-0.5,3.8-1.4c1.7-1.5,2.4-3.9,1.7-6.1l-7.8-23.9c8.1-9.3,12.3-20.1,12.3-31.4
	c0-31.6-34-57.3-75.7-57.3c-41.7,0-75.7,25.7-75.7,57.3c0,31.6,34,57.3,75.7,57.3c13.2,0,26.1-2.6,37.5-7.5l25.7,12.4
	C48.4,335.1,49.3,335.3,50.1,335.3 M22,310.2c-0.8,0-1.7,0.2-2.5,0.6c-10.5,4.9-22.6,7.5-35.1,7.5c-35.4,0-64.2-20.5-64.2-45.8
	c0-25.2,28.8-45.8,64.2-45.8c35.4,0,64.2,20.5,64.2,45.8c0,9.3-4,18.3-11.4,26c-1.5,1.5-2,3.8-1.3,5.8l4.6,14.2l-15.9-7.7
	C23.7,310.4,22.9,310.2,22,310.2 M81.3,336.4h9l1.9,4.6h2.1l-7.6-17.6h-1.7L77.3,341h2.1L81.3,336.4z M85.8,325.5l3.8,9.2H82
	L85.8,325.5z M124.1,327.7c-0.3-0.4-0.7-0.7-1.3-0.9c-0.5-0.2-1-0.3-1.5-0.3c-0.3,0-0.6,0-0.9,0.1c-0.3,0.1-0.6,0.2-0.8,0.3
	c-0.3,0.1-0.5,0.3-0.6,0.6c-0.2,0.2-0.2,0.5-0.2,0.8c0,0.5,0.2,0.9,0.6,1.2c0.4,0.3,0.9,0.5,1.5,0.7c0.6,0.2,1.3,0.4,1.9,0.6
	c0.7,0.2,1.3,0.5,2,0.8c0.6,0.4,1.1,0.9,1.5,1.5c0.4,0.6,0.6,1.4,0.6,2.5c0,1-0.2,1.8-0.5,2.6c-0.4,0.7-0.9,1.3-1.5,1.8
	c-0.6,0.5-1.3,0.8-2.2,1.1c-0.8,0.2-1.7,0.3-2.6,0.3c-1.1,0-2.2-0.2-3.2-0.5c-1-0.3-1.9-0.9-2.7-1.7l2.8-3c0.4,0.5,0.9,0.9,1.5,1.2
	c0.6,0.3,1.2,0.4,1.9,0.4c0.3,0,0.6,0,1-0.1c0.3-0.1,0.6-0.2,0.9-0.3c0.3-0.1,0.5-0.3,0.6-0.6c0.2-0.2,0.2-0.5,0.2-0.8
	c0-0.5-0.2-0.9-0.6-1.3c-0.4-0.3-0.9-0.6-1.5-0.8c-0.6-0.2-1.3-0.4-2-0.6c-0.7-0.2-1.4-0.5-2-0.9c-0.6-0.4-1.1-0.8-1.5-1.4
	c-0.4-0.6-0.6-1.4-0.6-2.4c0-0.9,0.2-1.8,0.6-2.5c0.4-0.7,0.9-1.3,1.5-1.8c0.6-0.5,1.3-0.8,2.1-1.1c0.8-0.2,1.6-0.4,2.5-0.4
	c1,0,2,0.1,2.9,0.4c0.9,0.3,1.8,0.8,2.5,1.4L124.1,327.7z M140.2,333.5l-6.6-10.1h4.8l3.7,6.6l3.9-6.6h4.6l-6.6,10.1v7.5h-3.9V333.5
	z M158.2,323.5h5.3l7.5,12.2h0v-12.2h3.9V341h-5.1l-7.7-12.5h0V341h-3.9V323.5z M182.8,341h4.3l1.5-3.7h6.8l1.5,3.7h4.4l-7.6-17.6
	h-3.2L182.8,341z M194,334h-4.3l2.1-5.5L194,334z M220.7,328c-0.4-0.5-0.9-0.8-1.4-1.1c-0.6-0.2-1.2-0.4-1.9-0.4s-1.4,0.1-2,0.4
	c-0.6,0.3-1.2,0.7-1.6,1.2c-0.5,0.5-0.8,1.1-1.1,1.8c-0.3,0.7-0.4,1.4-0.4,2.3c0,0.8,0.1,1.6,0.4,2.3c0.3,0.7,0.6,1.3,1.1,1.8
	c0.4,0.5,1,0.9,1.6,1.2c0.6,0.3,1.3,0.4,1.9,0.4c0.8,0,1.5-0.2,2.1-0.5c0.6-0.3,1.1-0.8,1.5-1.4l3.2,2.4c-0.7,1-1.7,1.8-2.8,2.3
	c-1.1,0.5-2.3,0.7-3.5,0.7c-1.4,0-2.6-0.2-3.8-0.6c-1.2-0.4-2.2-1-3-1.9c-0.8-0.8-1.5-1.8-2-2.9c-0.5-1.1-0.7-2.4-0.7-3.8
	c0-1.4,0.2-2.7,0.7-3.8s1.1-2.1,2-2.9c0.8-0.8,1.8-1.4,3-1.8c1.2-0.4,2.4-0.6,3.8-0.6c0.5,0,1,0,1.6,0.1c0.5,0.1,1.1,0.2,1.6,0.4
	c0.5,0.2,1,0.5,1.5,0.8c0.5,0.3,0.9,0.7,1.3,1.2L220.7,328z M231.5,332.2c0,1.4,0.2,2.7,0.7,3.8c0.5,1.1,1.1,2.1,2,2.9
	c0.8,0.8,1.8,1.4,3,1.8c1.2,0.4,2.4,0.6,3.8,0.6c1.4,0,2.6-0.2,3.8-0.6c1.2-0.4,2.2-1,3-1.8c0.8-0.8,1.5-1.8,2-2.9
	c0.5-1.1,0.7-2.4,0.7-3.8c0-1.4-0.2-2.7-0.7-3.8c-0.5-1.1-1.1-2.1-2-2.9c-0.8-0.8-1.8-1.4-3-1.8c-1.2-0.4-2.4-0.6-3.8-0.6
	c-1.4,0-2.6,0.2-3.8,0.6c-1.2,0.4-2.2,1-3,1.8c-0.8,0.8-1.5,1.8-2,2.9C231.7,329.6,231.5,330.8,231.5,332.2 M235.5,332.2
	c0-0.8,0.1-1.6,0.4-2.3c0.3-0.7,0.6-1.3,1.1-1.8c0.5-0.5,1.1-0.9,1.7-1.2c0.7-0.3,1.4-0.4,2.2-0.4c0.8,0,1.6,0.1,2.2,0.4
	c0.7,0.3,1.2,0.7,1.7,1.2c0.5,0.5,0.8,1.1,1.1,1.8c0.3,0.7,0.4,1.4,0.4,2.3c0,0.8-0.1,1.6-0.4,2.3c-0.3,0.7-0.6,1.3-1.1,1.8
	c-0.5,0.5-1.1,0.9-1.7,1.2c-0.7,0.3-1.4,0.4-2.2,0.4c-0.8,0-1.6-0.1-2.2-0.4c-0.7-0.3-1.2-0.7-1.7-1.2c-0.5-0.5-0.8-1.1-1.1-1.8
	C235.6,333.8,235.5,333.1,235.5,332.2 M259.3,341h3.9v-7h1.9l3.7,7h4.6l-4.5-7.4c1.2-0.2,2.2-0.8,2.8-1.7c0.6-0.9,1-1.9,1-3.2
	c0-1-0.2-1.9-0.5-2.6c-0.4-0.7-0.8-1.2-1.4-1.6c-0.6-0.4-1.3-0.7-2.1-0.9c-0.8-0.2-1.6-0.3-2.5-0.3h-6.8V341z M263.2,326.7h2.5
	c0.3,0,0.7,0,1.1,0.1c0.4,0,0.7,0.1,1,0.3c0.3,0.1,0.5,0.3,0.7,0.6c0.2,0.3,0.3,0.6,0.3,1.1c0,0.5-0.1,0.9-0.3,1.1
	c-0.2,0.3-0.5,0.5-0.8,0.6c-0.3,0.1-0.7,0.2-1.1,0.2c-0.4,0-0.8,0-1.1,0h-2.3V326.7z M295.7,341h1.8v-8.2h3.3c1.8,0,3.2-0.4,4.2-1.2
	c1-0.8,1.6-2,1.6-3.5c0-1.6-0.5-2.7-1.6-3.5c-1-0.8-2.4-1.2-4.2-1.2h-5.1V341z M297.5,325.1h2.9c0.8,0,1.5,0.1,2,0.2
	c0.6,0.2,1,0.4,1.3,0.7c0.3,0.3,0.6,0.6,0.7,1c0.1,0.4,0.2,0.8,0.2,1.2c0,0.4-0.1,0.8-0.2,1.2c-0.1,0.4-0.4,0.7-0.7,1
	c-0.3,0.3-0.8,0.5-1.3,0.7c-0.6,0.2-1.2,0.2-2,0.2h-2.9V325.1z M318,332.9h3l4.8,8.2h2.2l-5.1-8.3c1.5-0.1,2.6-0.6,3.3-1.5
	c0.8-0.8,1.2-1.9,1.2-3.1c0-1.6-0.5-2.7-1.6-3.5c-1-0.8-2.4-1.2-4.2-1.2h-5.4V341h1.8V332.9z M318,325.1h3.2c0.8,0,1.5,0.1,2,0.2
	c0.6,0.2,1,0.4,1.3,0.7s0.6,0.6,0.7,1c0.1,0.4,0.2,0.8,0.2,1.2c0,0.4-0.1,0.8-0.2,1.2c-0.1,0.4-0.4,0.7-0.7,1
	c-0.3,0.3-0.8,0.5-1.3,0.7c-0.6,0.2-1.2,0.2-2,0.2H318V325.1z M354.3,332.2c0-1.3-0.2-2.6-0.7-3.7c-0.5-1.1-1.1-2.1-1.9-2.9
	c-0.8-0.8-1.8-1.5-2.9-1.9c-1.1-0.5-2.3-0.7-3.6-0.7c-1.3,0-2.5,0.2-3.6,0.7c-1.1,0.5-2.1,1.1-2.9,1.9c-0.8,0.8-1.5,1.8-1.9,2.9
	c-0.5,1.1-0.7,2.4-0.7,3.7c0,1.3,0.2,2.6,0.7,3.7c0.5,1.1,1.1,2.1,1.9,2.9c0.8,0.8,1.8,1.5,2.9,1.9c1.1,0.5,2.3,0.7,3.6,0.7
	c1.3,0,2.5-0.2,3.6-0.7c1.1-0.5,2.1-1.1,2.9-1.9c0.8-0.8,1.5-1.8,1.9-2.9C354,334.8,354.3,333.6,354.3,332.2 M352.3,332.2
	c0,1-0.2,2-0.5,2.9c-0.3,0.9-0.8,1.7-1.4,2.4c-0.6,0.7-1.4,1.3-2.3,1.7c-0.9,0.4-1.9,0.6-3,0.6c-1.1,0-2.1-0.2-3-0.6
	c-0.9-0.4-1.6-1-2.3-1.7c-0.6-0.7-1.1-1.5-1.4-2.4c-0.3-0.9-0.5-1.9-0.5-2.9c0-1,0.2-2,0.5-2.9c0.3-0.9,0.8-1.7,1.4-2.4
	c0.6-0.7,1.4-1.3,2.3-1.7c0.9-0.4,1.9-0.6,3-0.6c1.1,0,2.1,0.2,3,0.6c0.9,0.4,1.7,1,2.3,1.7c0.6,0.7,1.1,1.5,1.4,2.4
	C352.2,330.3,352.3,331.2,352.3,332.2 M363.8,341h5.8c1.1,0,2.2-0.2,3.3-0.5c1.1-0.4,2.1-0.9,3-1.7c0.9-0.7,1.6-1.7,2.1-2.7
	s0.8-2.4,0.8-3.8c0-1.5-0.3-2.7-0.8-3.8c-0.5-1.1-1.3-2-2.1-2.8c-0.9-0.7-1.9-1.3-3-1.7c-1.1-0.4-2.2-0.5-3.3-0.5h-5.8V341z
	 M365.6,325.1h3.5c1.3,0,2.5,0.2,3.5,0.6c1,0.4,1.8,0.9,2.5,1.6c0.7,0.7,1.1,1.4,1.5,2.3c0.3,0.9,0.5,1.7,0.5,2.6
	c0,0.9-0.2,1.8-0.5,2.6c-0.3,0.9-0.8,1.6-1.5,2.3c-0.7,0.7-1.5,1.2-2.5,1.6c-1,0.4-2.1,0.6-3.5,0.6h-3.5V325.1z M401.2,334.5
	c0,0.7-0.1,1.5-0.3,2.3c-0.2,0.8-0.5,1.6-1,2.3c-0.5,0.7-1.1,1.3-2,1.7c-0.8,0.5-1.9,0.7-3.2,0.7c-1.3,0-2.4-0.2-3.2-0.7
	c-0.8-0.5-1.5-1-2-1.7c-0.5-0.7-0.8-1.5-1-2.3c-0.2-0.8-0.3-1.6-0.3-2.3v-11h1.8v10.8c0,0.8,0.1,1.6,0.2,2.2
	c0.2,0.6,0.4,1.1,0.7,1.5c0.3,0.4,0.6,0.7,0.9,1c0.3,0.2,0.7,0.4,1,0.6c0.3,0.1,0.7,0.2,1,0.3c0.3,0,0.6,0.1,0.8,0.1
	c0.2,0,0.5,0,0.8-0.1c0.3,0,0.7-0.1,1-0.3c0.3-0.1,0.7-0.3,1-0.6c0.3-0.2,0.6-0.6,0.9-1c0.3-0.4,0.5-0.9,0.7-1.5
	c0.2-0.6,0.2-1.3,0.2-2.2v-10.8h1.8V334.5z M426.4,338.3c-0.3,0.4-0.7,0.9-1.1,1.3c-0.4,0.4-0.9,0.7-1.5,1c-0.6,0.3-1.2,0.5-1.8,0.7
	c-0.7,0.2-1.3,0.2-2.1,0.2c-1.3,0-2.5-0.2-3.6-0.7c-1.1-0.5-2.1-1.1-2.9-1.9c-0.8-0.8-1.5-1.8-1.9-2.9c-0.5-1.1-0.7-2.4-0.7-3.7
	c0-1.3,0.2-2.6,0.7-3.7c0.5-1.1,1.1-2.1,1.9-2.9c0.8-0.8,1.8-1.5,2.9-1.9c1.1-0.5,2.3-0.7,3.6-0.7c1.1,0,2.2,0.2,3.3,0.6
	c1.1,0.4,2,1.1,2.8,2.1l-1.6,1.2c-0.2-0.3-0.4-0.6-0.7-0.8c-0.3-0.3-0.7-0.5-1.1-0.7c-0.4-0.2-0.8-0.4-1.3-0.5
	c-0.5-0.1-0.9-0.2-1.4-0.2c-1.1,0-2.1,0.2-3,0.6c-0.9,0.4-1.6,1-2.3,1.7c-0.6,0.7-1.1,1.5-1.4,2.4c-0.3,0.9-0.5,1.9-0.5,2.9
	c0,1,0.2,2,0.5,2.9c0.3,0.9,0.8,1.7,1.4,2.4c0.6,0.7,1.4,1.3,2.3,1.7c0.9,0.4,1.9,0.6,3,0.6c0.5,0,0.9,0,1.4-0.1
	c0.5-0.1,0.9-0.2,1.3-0.4c0.4-0.2,0.9-0.5,1.2-0.8c0.4-0.3,0.7-0.8,1.1-1.3L426.4,338.3z M441.2,341h-1.8v-15.9h-5.9v-1.6h13.6v1.6
	h-5.9V341z"/>
</svg>
